# xmcd
#
# Track frame offsets:
#	151
#	10904
#	27740
#	37339
#	58881
#	76030
#	92869
#	111455
#	144833
#	162306
#	188747
#	213848
#	247150
#	263296
#
# Disc length: 3985 seconds
#
# Revision: 17
# Processed by: cddbd v1.5.1PL0 Copyright (c) Steve Scherf et al.
# Submitted via: audiograbber 1.82.01
#
DISCID=c10f8f0e
DTITLE=Dj Koze - All People is My Friends (Kompakt CD30)
DYEAR=2004
DGENRE=Electronic
TTITLE0=World Standard and Wechsel Garland - Solitude Sea
TTITLE1=Langley Schools Music proj. - The Long and Winding Road
TTITLE2=The Christians and Conrad Sprenger - I Was Yours
TTITLE3=Jan Jelinek Avec The Exposures - My Favuorite Shop
TTITLE4=Jackmate - 80sc 7seq
TTITLE5=Mr. Oizo - Last Night a Dj Killed My Dog
TTITLE6=Isolee - Lost
TTITLE7=Fabrice Lig - Meet You In Brooklyn
TTITLE8=Thomas Brinkmann - Isch
TTITLE9=Ricardo Villalobos - Waiworinao
TTITLE10=Smith N Hack - For Disco Play Only
TTITLE11=Mathew Jonson - Typerope
TTITLE12=Grungerman - In Tyrannis
TTITLE13=Dj Koze - Gekloppel b2
EXTD=
EXTT0=
EXTT1=
EXTT2=
EXTT3=
EXTT4=
EXTT5=
EXTT6=
EXTT7=
EXTT8=
EXTT9=
EXTT10=
EXTT11=
EXTT12=
EXTT13=
PLAYORDER=
